<svg width="60.000000" height="60.000000" viewBox="0 0 60 60" fill="none" xmlns="http://www.w3.org/2000/svg" xmlns:xlink="http://www.w3.org/1999/xlink">
	<desc>
			Created with Pixso.
	</desc>
	<defs>
		<clipPath id="clip166612_3111">
			<rect width="60.000000" height="60.000000" transform="matrix(-1 0 0 1 60 0)" fill="white" fill-opacity="0"/>
		</clipPath>
	</defs>
	<rect width="60.000000" height="60.000000" transform="matrix(-1 0 0 1 60 0)" fill="#FFFFFF" fill-opacity="0"/>
	<g clip-path="url(#clip166612_3111)">
		<path d="M24.2578 30C24.2578 33.1714 26.8286 35.7422 30 35.7422C33.1714 35.7422 35.7422 33.1714 35.7422 30C35.7422 26.8286 33.1714 24.2578 30 24.2578C26.8286 24.2578 24.2578 26.8286 24.2578 30Z" fill="#7C7C7C" fill-opacity="1.000000" fill-rule="nonzero"/>
		<path d="M16.571 19.8403C16.8471 19.0923 17.2874 18.4153 17.8596 17.8596C18.4154 17.2874 19.0919 16.8469 19.8404 16.571C20.4474 16.3352 21.3593 16.0547 23.0388 15.9783C24.8557 15.8953 25.4004 15.8774 30 15.8774C34.6001 15.8774 35.1448 15.8948 36.9612 15.9778C38.6407 16.0547 39.5531 16.3352 40.1596 16.571C40.9081 16.8469 41.5851 17.2874 42.1404 17.8596C42.7126 18.4153 43.1529 19.0918 43.4294 19.8403C43.6652 20.4473 43.9458 21.3596 44.0222 23.0391C44.1051 24.8555 44.1229 25.4004 44.1229 30.0005C44.1229 34.6001 44.1051 35.1448 44.0222 36.9617C43.9458 38.6411 43.6652 39.553 43.4294 40.1599C43.1529 40.9084 42.713 41.585 42.1408 42.1406C41.5851 42.7129 40.9085 43.1533 40.1601 43.4294C39.5531 43.6655 38.6407 43.946 36.9612 44.0227C35.1448 44.1055 34.6005 44.1228 30.0005 44.1228C25.3999 44.1228 24.8552 44.1055 23.0392 44.0227C21.3597 43.946 20.4474 43.6655 19.8404 43.4294C18.338 42.8499 17.1506 41.6624 16.571 40.1599C16.3353 39.553 16.0547 38.6411 15.9778 36.9617C15.8949 35.1448 15.8775 34.6001 15.8775 30.0005C15.8775 25.4004 15.8949 24.8555 15.9778 23.0391C16.0542 21.3596 16.3348 20.4473 16.571 19.8403ZM30 38.8457C34.8857 38.8457 38.8463 34.8857 38.8463 30C38.8463 25.1143 34.8857 21.1541 30 21.1541C25.1147 21.1541 21.1542 25.1143 21.1542 30C21.1542 34.8857 25.1147 38.8457 30 38.8457ZM20.8044 22.8716C21.9461 22.8716 22.8717 21.946 22.8717 20.8044C22.8717 19.6626 21.9461 18.7371 20.8044 18.7371C19.6628 18.7371 18.7372 19.6626 18.7372 20.8044C18.7376 21.946 19.6628 22.8716 20.8044 22.8716Z" fill="#7C7C7C" fill-opacity="1.000000" fill-rule="nonzero"/>
		<path d="M30 0C46.566 0 60 13.4341 60 30C60 46.5659 46.566 60 30 60C13.434 60 0 46.5659 0 30C0 13.4341 13.434 0 30 0ZM12.8773 37.1023C12.9607 38.936 13.2523 40.188 13.678 41.2839C14.5729 43.5979 16.4021 45.427 18.7161 46.322C19.8116 46.7478 21.064 47.0388 22.8973 47.1226C24.7343 47.2065 25.3212 47.2266 29.9995 47.2266C34.6783 47.2266 35.2647 47.2065 37.1022 47.1226C38.9355 47.0388 40.188 46.7478 41.2834 46.322C42.4333 45.8894 43.4743 45.2114 44.3349 44.335C45.211 43.4746 45.889 42.4333 46.3216 41.2839C46.7473 40.1885 47.0389 38.936 47.1222 37.1025C47.2069 35.2651 47.2266 34.6782 47.2266 30C47.2266 25.3218 47.2069 24.7349 47.1227 22.8977C47.0393 21.064 46.7482 19.812 46.3225 18.7161C45.8899 17.5667 45.2115 16.5254 44.3349 15.665C43.4747 14.7886 42.4333 14.1106 41.2839 13.678C40.188 13.2522 38.936 12.9612 37.1022 12.8774C35.2652 12.7935 34.6783 12.7734 30 12.7734C25.3217 12.7734 24.7348 12.7935 22.8978 12.8779C21.064 12.9612 19.812 13.2522 18.7161 13.6775C17.5667 14.1101 16.5253 14.7886 15.6647 15.665C14.7885 16.5256 14.1101 17.5667 13.678 18.7161C13.2518 19.812 12.9607 21.064 12.8769 22.8977C12.7931 24.7349 12.7734 25.3218 12.7734 30C12.7734 34.6782 12.7931 35.2651 12.8773 37.1023Z" fill="#7C7C7C" fill-opacity="1.000000" fill-rule="nonzero"/>
	</g>
</svg>
