<svg width="71.399902" height="79.200012" viewBox="0 0 71.3999 79.2" fill="none" xmlns="http://www.w3.org/2000/svg" xmlns:xlink="http://www.w3.org/1999/xlink">
	<desc>
			Created with Pixso.
	</desc>
	<defs>
		<clipPath id="clip406480_4302">
			<rect width="71.399994" height="79.200005" fill="white" fill-opacity="0"/>
		</clipPath>
	</defs>
	<rect width="71.399994" height="79.200005" fill="#FFFFFF" fill-opacity="0"/>
	<g clip-path="url(#clip406480_4302)">
		<path d="M18.0781 9.29419C18.2397 9.01303 18.5977 8.91653 18.8774 9.07867L53.1069 28.9032C53.3872 29.0653 53.4829 29.4247 53.3218 29.7058C53.1602 29.987 52.8022 30.0835 52.5225 29.9213L18.293 10.0968C18.0132 9.93469 17.917 9.57535 18.0781 9.29419Z" fill="#000000" fill-opacity="1.000000" fill-rule="evenodd"/>
		<path d="M31.501 1.12491C32.7778 0.38797 34.2261 0 35.7002 0C37.1738 0 38.6221 0.38797 39.8989 1.12491C39.8994 1.12515 39.8994 1.12537 39.8999 1.12561L67.2002 16.7288C68.4756 17.4654 69.5352 18.5247 70.2725 19.8003C71.0098 21.0758 71.3984 22.5229 71.3999 23.9962L71.3999 55.2038C71.3984 56.6771 71.0098 58.1241 70.2725 59.3997C69.5352 60.6753 68.4756 61.7346 67.2002 62.4713L67.1978 62.4726L39.8999 78.0744C39.8999 78.0745 39.8994 78.0746 39.8994 78.0748C38.6226 78.8119 37.1743 79.2 35.7002 79.2C34.2256 79.2 32.7773 78.8119 31.5005 78.0748C31.5005 78.0746 31.5 78.0745 31.5 78.0744L4.20215 62.4726L4.2002 62.4713C2.92432 61.7346 1.86475 60.6753 1.12744 59.3997C0.390137 58.1241 0.00146484 56.6771 0 55.2038L0 23.9962C0.00146484 22.5229 0.390137 21.0758 1.12744 19.8003C1.86475 18.5247 2.92432 17.4654 4.2002 16.7288L4.20215 16.7274L31.5 1.12561C31.5005 1.12537 31.501 1.12515 31.501 1.12491ZM35.7002 1.20026C34.436 1.20026 33.1943 1.53299 32.1001 2.16504L32.0977 2.16638L4.7998 17.7682C4.7998 17.7684 4.79932 17.7687 4.79883 17.7689C3.70605 18.4003 2.79785 19.308 2.1665 20.4009C1.53467 21.4942 1.20117 22.7344 1.2002 23.9972L1.2002 55.2029C1.20117 56.4656 1.53467 57.7058 2.1665 58.7991C2.79785 59.892 3.70557 60.7996 4.79883 61.431C4.79883 61.4313 4.79932 61.4315 4.7998 61.4318L32.1001 77.0349C33.1943 77.667 34.436 77.9998 35.7002 77.9998C36.9639 77.9998 38.2056 77.667 39.2998 77.0349L39.3022 77.0336L66.6001 61.4318C66.6006 61.4315 66.6011 61.4313 66.6016 61.431C67.6943 60.7996 68.6021 59.892 69.2334 58.7991C69.8652 57.7057 70.1987 56.4654 70.2002 55.2025L70.2002 23.9975C70.1987 22.7346 69.8652 21.4943 69.2334 20.4009C68.6021 19.308 67.6943 18.4003 66.6011 17.7689C66.6006 17.7687 66.6006 17.7684 66.6001 17.7682L39.3022 2.16638L39.2998 2.16504C38.2056 1.53299 36.9639 1.20026 35.7002 1.20026Z" fill="#000000" fill-opacity="1.000000" fill-rule="evenodd"/>
		<path d="M1.2793 20.0924C1.44336 19.8123 1.80566 19.7166 2.08838 19.8786L35.3999 38.9373L68.7109 19.8786C68.9941 19.7166 69.3564 19.8123 69.52 20.0924C69.6836 20.3724 69.5869 20.7307 69.3037 20.8927L35.6963 40.1211C35.5127 40.226 35.2866 40.226 35.103 40.1211L1.49561 20.8927C1.2124 20.7307 1.11572 20.3724 1.2793 20.0924Z" fill="#000000" fill-opacity="1.000000" fill-rule="evenodd"/>
		<path d="M35.3999 39C35.731 39 36 39.2626 36 39.5865L36 78.0135C36 78.3374 35.731 78.6 35.3999 78.6C35.0684 78.6 34.7998 78.3374 34.7998 78.0135L34.7998 39.5865C34.7998 39.2626 35.0684 39 35.3999 39Z" fill="#000000" fill-opacity="1.000000" fill-rule="evenodd"/>
	</g>
</svg>
