<svg width="60.000000" height="60.000000" viewBox="0 0 60 60" fill="none" xmlns="http://www.w3.org/2000/svg" xmlns:xlink="http://www.w3.org/1999/xlink">
	<desc>
			Created with Pixso.
	</desc>
	<defs/>
	<path id="fb" d="M30 0C13.5 0 0 13.5242 0 30.1807C0 45.241 10.98 57.741 25.32 60L25.32 38.9158L17.7 38.9158L17.7 30.1807L25.32 30.1807L25.32 23.5242C25.32 15.9639 29.79 11.8071 36.66 11.8071C39.93 11.8071 43.3499 12.3796 43.3499 12.3796L43.3499 19.8193L39.5699 19.8193C35.85 19.8193 34.68 22.1387 34.68 24.5181L34.68 30.1807L43.0199 30.1807L41.67 38.9158L34.68 38.9158L34.68 60C41.7493 58.8792 48.1866 55.2576 52.8297 49.7893C57.4729 44.321 60.016 37.3665 59.9999 30.1807C59.9999 13.5242 46.4999 0 30 0Z" fill="#7C7C7C" fill-opacity="1.000000" fill-rule="nonzero"/>
</svg>
