<svg width="60.000000" height="60.000000" viewBox="0 0 60 60" fill="none" xmlns="http://www.w3.org/2000/svg" xmlns:xlink="http://www.w3.org/1999/xlink">
	<desc>
			Created with Pixso.
	</desc>
	<defs/>
	<path d="M30 0C13.432 0 0 13.4314 0 30C0 46.5686 13.432 60 30 60C46.568 60 60 46.5686 60 30C60 13.4314 46.568 0 30 0ZM45.2176 33.2446C46.6159 34.6104 48.0951 35.8958 49.3504 37.4026C49.9065 38.0691 50.4307 38.7585 50.8297 39.5337C51.3993 40.6392 50.8849 41.8516 49.8954 41.9172L43.7494 41.916C42.162 42.0474 40.8988 41.407 39.8339 40.3218C38.9837 39.457 38.195 38.5332 37.3762 37.6389C37.0416 37.2717 36.6893 36.9263 36.2695 36.6543C35.4316 36.1094 34.7036 36.2761 34.2236 37.1516C33.7344 38.0422 33.6227 39.0291 33.5761 40.0205C33.5092 41.4697 33.0721 41.8484 31.618 41.9165C28.5109 42.062 25.5628 41.5906 22.8227 40.0242C20.4055 38.6426 18.5346 36.6924 16.9043 34.4846C13.7297 30.1804 11.2984 25.4565 9.11386 20.5969C8.62219 19.5027 8.98189 18.917 10.1893 18.8943C12.1952 18.8557 14.2011 18.8606 16.2071 18.8926C17.0234 18.9053 17.5636 19.3726 17.8772 20.1428C18.9612 22.8098 20.2901 25.3474 21.9554 27.7007C22.3992 28.3274 22.8522 28.9521 23.4973 29.3948C24.2093 29.8833 24.7519 29.7219 25.0877 28.927C25.3025 28.4219 25.3952 27.8818 25.4418 27.3403C25.6014 25.4861 25.6205 23.6323 25.3442 21.7854C25.1724 20.6296 24.5224 19.8831 23.3702 19.6646C22.7834 19.5535 22.8694 19.3362 23.1548 19.0012C23.6501 18.4216 24.1142 18.0632 25.0416 18.0632L31.9857 18.062C33.0801 18.2769 33.3256 18.7678 33.4742 19.8704L33.4803 27.5872C33.4674 28.0137 33.6945 29.2781 34.4606 29.5574C35.0744 29.76 35.4795 29.2678 35.8465 28.8792C37.5118 27.1121 38.6983 25.0264 39.7608 22.8674C40.2298 21.9155 40.6343 20.9304 41.0271 19.9434C41.3193 19.2136 41.7735 18.8545 42.5972 18.8667L49.2841 18.8748C49.4811 18.8748 49.6812 18.8765 49.8764 18.9104C51.0034 19.103 51.3121 19.5879 50.9635 20.6873C50.4147 22.4146 49.3485 23.8533 48.3063 25.2957C47.1891 26.8401 45.9978 28.3303 44.8917 29.8816C43.8752 31.2993 43.9556 32.0132 45.2176 33.2446Z" fill="#7C7C7C" fill-opacity="1.000000" fill-rule="nonzero"/>
</svg>
